<?xml version="1.0" standalone="no"?><!DOCTYPE svg PUBLIC "-//W3C//DTD SVG 1.1//EN" "http://www.w3.org/Graphics/SVG/1.1/DTD/svg11.dtd"><svg class="icon" width="200px" height="200.00px" viewBox="0 0 1024 1024" version="1.1" xmlns="http://www.w3.org/2000/svg"><path d="M300.202667 736.682667L108.373333 607.36a85.333333 85.333333 0 0 1 95.445334-141.525333L298.666667 529.834667V341.333333a256 256 0 1 1 512 0v384a42.666667 42.666667 0 0 1-42.666667 42.666667H341.333333a42.666667 42.666667 0 0 1-41.130666-31.317333z" fill="#000000" /><path d="M256 853.333333m42.666667 0l512 0q42.666667 0 42.666666 42.666667l0 0q0 42.666667-42.666666 42.666667l-512 0q-42.666667 0-42.666667-42.666667l0 0q0-42.666667 42.666667-42.666667Z" fill="#000000" opacity=".3" /></svg>