<?xml version="1.0" standalone="no"?><!DOCTYPE svg PUBLIC "-//W3C//DTD SVG 1.1//EN" "http://www.w3.org/Graphics/SVG/1.1/DTD/svg11.dtd"><svg class="icon" width="200px" height="200.00px" viewBox="0 0 1024 1024" version="1.1" xmlns="http://www.w3.org/2000/svg"><path d="M943.45924 266.356531H408.402753a18.952292 18.952292 0 0 0-19.208404 21.500606l45.408667 397.140149a213.635866 213.635866 0 0 1 36.419133 119.860439v182.864003a16.019809 16.019809 0 0 1-1.075671 5.775327c1.28056 5.596048 8.438892 10.013981 16.442394 10.013981h379.10986c8.451698 0 15.930169-4.917351 16.647284-10.961596L962.667644 287.869943a18.952292 18.952292 0 0 0-19.208404-21.513412z" fill="#FF505E" /><path d="M675.937399 573.998324a143.614831 143.614831 0 0 1-143.422747-143.422747 20.488964 20.488964 0 0 1 40.977928 0 102.44482 102.44482 0 0 0 204.889639 0 20.488964 20.488964 0 0 1 40.977928 0 143.602026 143.602026 0 0 1-143.422748 143.422747z" fill="#333333" /><path d="M973.360322 259.057338A40.017508 40.017508 0 0 0 943.45924 245.867567H408.402753a39.42845 39.42845 0 0 0-39.582117 44.32019l41.784681 365.356644a211.625386 211.625386 0 0 1 51.13277 86.489039L409.696119 286.845495H942.17868l-79.586819 696.176577H489.295744l-18.286401-159.865141v164.564797a15.584418 15.584418 0 0 1-15.366723 15.789308h-3.84168c5.442381 12.126906 18.92668 20.488964 34.575126 20.488964h379.122666c19.208404 0 35.087351-12.511074 36.98258-29.11994l80.572851-704.679497a39.940674 39.940674 0 0 0-9.693841-31.143225z" fill="#333333" /><path d="M455.64262 1024H76.519954a36.111799 36.111799 0 0 1-35.855687-36.278272V804.870531C40.664267 677.41637 141.828527 573.767823 266.042871 573.767823s225.378603 103.72538 225.378603 231.102708v182.851197a36.111799 36.111799 0 0 1-35.778854 36.278272zM81.642195 983.022072h368.878184V804.870531c0-104.839467-82.736997-190.12478-184.400675-190.12478S81.642195 700.031064 81.642195 804.870531z" fill="#333333" /><path d="M143.109087 1024a20.488964 20.488964 0 0 1-20.488964-20.488964V839.804214a20.488964 20.488964 0 0 1 40.977928 0v163.706822a20.488964 20.488964 0 0 1-20.488964 20.488964zM266.042871 1024a20.488964 20.488964 0 0 1-20.488964-20.488964V839.804214a20.488964 20.488964 0 0 1 40.977927 0v163.706822a20.488964 20.488964 0 0 1-20.488963 20.488964zM389.040682 1024a20.488964 20.488964 0 0 1-20.488964-20.488964V839.804214a20.488964 20.488964 0 0 1 40.977928 0v163.706822a20.488964 20.488964 0 0 1-20.488964 20.488964zM266.042871 614.745751a20.488964 20.488964 0 0 1-20.488964-20.488964V20.488964a20.488964 20.488964 0 0 1 40.977927 0v573.767823a20.488964 20.488964 0 0 1-20.488963 20.488964zM389.040682 778.439767H143.109087a20.488964 20.488964 0 1 1 0-40.977927h245.867567a20.488964 20.488964 0 1 1 0 40.977927z" fill="#333333" /></svg>