<?xml version="1.0" standalone="no"?><!DOCTYPE svg PUBLIC "-//W3C//DTD SVG 1.1//EN" "http://www.w3.org/Graphics/SVG/1.1/DTD/svg11.dtd"><svg class="icon" width="200px" height="173.56px" viewBox="0 0 1180 1024" version="1.1" xmlns="http://www.w3.org/2000/svg"><path d="M1145.599586 734.532376v11.426354A72.184747 72.184747 0 0 1 1073.414839 818.060677H122.063264a72.184747 72.184747 0 0 1-72.168187-72.035708v-11.426353c0-302.616211 245.368523-547.984734 547.984734-547.984734s547.719775 245.302283 547.719775 547.918494z" fill="#FFFFFF" /><path d="M1146.526942 751.688466v11.790672c-0.11592 41.085193-28.880523 74.337538-64.418138 74.337538H232.948574c-35.537616 0-64.302219-33.252345-64.418139-74.337538v-11.790672c0-312.287211 219.00511-565.505143 489.114173-565.505142s488.882334 253.217931 488.882334 565.505142z" fill="#65A347" /><path d="M1024.927356 745.975289v11.724433c-0.09936 40.903034-25.237337 74.006339-56.303771 74.006339H226.871078c-31.033314 0-56.171292-33.119865-56.303771-74.006339v-11.724433c0-310.929297 191.316903-563.037713 427.246264-563.037712s427.113785 252.108416 427.113785 563.037712z" fill="#9BD37A" /><path d="M1081.082088 856.5294H99.359596A99.508636 99.508636 0 0 1 0 757.451323v-11.856912C0 420.092373 264.826444 155.282489 590.328482 155.282489c127.710201 0 361.288052 34.080342 490.919205 262.309335A24.839899 24.839899 0 1 1 1038.092503 442.150204c-117.244324-206.369882-330.867456-237.187916-447.764021-237.187917-298.078789 0-540.681803 242.536775-540.681804 540.681804v11.591953a49.779158 49.779158 0 0 0 49.679798 49.679798h981.755612a49.762598 49.762598 0 0 0 49.679798-49.580439v-11.707872A541.824439 541.824439 0 0 0 1106.203506 583.986028a24.839899 24.839899 0 1 1 47.377968-14.80458 590.593441 590.593441 0 0 1 26.810531 176.429523v11.939711a99.492076 99.492076 0 0 1-99.309917 98.978718zM1155.585225 1024H351.070574a24.839899 24.839899 0 0 1 0-49.679798h804.514651a24.839899 24.839899 0 0 1 0 49.679798zM234.372728 1024H24.839899a24.839899 24.839899 0 1 1 0-49.679798h209.532829a24.839899 24.839899 0 1 1 0 49.679798z" fill="#231815" /><path d="M590.196002 204.929167a24.839899 24.839899 0 0 1-24.839899-24.839899V24.839899a24.839899 24.839899 0 0 1 49.679798 0v155.282489a24.839899 24.839899 0 0 1-24.839899 24.806779z" fill="#231815" /><path d="M708.450482 49.679798H471.958083a24.839899 24.839899 0 0 1 0-49.679798h236.492399a24.839899 24.839899 0 1 1 0 49.679798zM253.896889 509.764409A24.839899 24.839899 0 0 1 233.495051 470.931367c52.875865-77.334886 122.311663-131.353386 206.353322-160.515428a24.839899 24.839899 0 0 1 16.294974 46.897729c-73.8573 25.601656-134.980012 73.244582-181.745262 141.637105a24.839899 24.839899 0 0 1-20.501196 10.813636z" fill="#231815" /></svg>