<?xml version="1.0" standalone="no"?><!DOCTYPE svg PUBLIC "-//W3C//DTD SVG 1.1//EN" "http://www.w3.org/Graphics/SVG/1.1/DTD/svg11.dtd"><svg class="icon" width="200px" height="200.00px" viewBox="0 0 1024 1024" version="1.1" xmlns="http://www.w3.org/2000/svg"><path d="M119.466667 341.333333h785.066666v-34.133333a68.266667 68.266667 0 0 0-68.266666-68.266667H187.733333a68.266667 68.266667 0 0 0-68.266666 68.266667v34.133333z m-68.266667 68.266667H34.133333a34.133333 34.133333 0 1 1 0-68.266667h17.066667v-34.133333a136.533333 136.533333 0 0 1 136.533333-136.533333h155.016534A102.434133 102.434133 0 0 1 443.733333 85.333333h136.533334a102.434133 102.434133 0 0 1 100.983466 85.333334H836.266667a136.533333 136.533333 0 0 1 136.533333 136.533333v34.133333h17.066667a34.133333 34.133333 0 1 1 0 68.266667h-17.066667v392.533333a136.533333 136.533333 0 0 1-136.533333 136.533334H187.733333a136.533333 136.533333 0 0 1-136.533333-136.533334V409.6z m238.933333 0H119.466667v392.533333a68.266667 68.266667 0 0 0 68.266666 68.266667h648.533334a68.266667 68.266667 0 0 0 68.266666-68.266667V409.6H733.866667v238.933333a102.4 102.4 0 0 1-102.4 102.4H392.533333a102.4 102.4 0 0 1-102.4-102.4V409.6z m124.040534-238.933333h195.652266A34.133333 34.133333 0 0 0 580.266667 153.6h-136.533334a34.133333 34.133333 0 0 0-29.559466 17.066667zM358.4 409.6v238.933333a34.133333 34.133333 0 0 0 34.133333 34.133334h238.933334a34.133333 34.133333 0 0 0 34.133333-34.133334V409.6H358.4z m51.2 170.666667h204.8a17.066667 17.066667 0 0 1 17.066667 17.066666v34.133334a17.066667 17.066667 0 0 1-17.066667 17.066666H409.6a17.066667 17.066667 0 0 1-17.066667-17.066666v-34.133334a17.066667 17.066667 0 0 1 17.066667-17.066666z" fill="#222222" /><path d="M409.6 443.733333h204.8a17.066667 17.066667 0 0 1 17.066667 17.066667v68.266667a17.066667 17.066667 0 0 1-17.066667 17.066666H409.6a17.066667 17.066667 0 0 1-17.066667-17.066666v-68.266667a17.066667 17.066667 0 0 1 17.066667-17.066667z" fill="#FFDF32" /></svg>