<?xml version="1.0" standalone="no"?><!DOCTYPE svg PUBLIC "-//W3C//DTD SVG 1.1//EN" "http://www.w3.org/Graphics/SVG/1.1/DTD/svg11.dtd"><svg class="icon" width="200px" height="200.00px" viewBox="0 0 1024 1024" version="1.1" xmlns="http://www.w3.org/2000/svg"><path fill="#e8989a" d="M871 488.1V213.7c0-4.3-1.8-8.3-5-11.3s-7.6-4.7-12.1-4.7H204.1c-9.4 0.1-17 7.2-17 16v274.6c-40.3 22-66 61.5-68.5 105.1v225.8c0 8.8 7.7 16 17.1 16s17.1-7.2 17.1-16V774h752.3v45.3c0 8.8 7.7 16 17.1 16 9.5 0 17.1-7.2 17.1-16V593.4c-2.3-43.6-28-83.2-68.3-105.3z m-307.9-34.5h-68.4m-205.2-0.2c-23.5 2.1-46.5 7.6-68.3 16.2V229.7h615.6v241c-21.7-8.9-44.8-14.6-68.4-17m-34.2 0.4H597.4m-136.5-0.1H323.8m-10.9 31.8h432.9c80.7 0 149.8 42.9 158.7 96H152.8c10.3-53 79.4-96 160.1-96z m592.3 255.8H152.8V613.8h752.3v127.8z m0 0"  /><path fill="#e8989a" d="M922.3 850.3c-17.7 0-32.1-13.9-32.1-31V789H167.8v30.3c0 17.1-14.4 31-32.1 31-17.7 0-32.1-13.9-32.1-31V597.8v-5.1c2.6-46 28-87.6 68.4-112.8v-266c0-17 14.3-30.9 31.9-31h649.9c8.4 0 16.3 3.1 22.4 8.7 6.2 5.8 9.8 13.9 9.8 22.3v265.8c40.5 25.3 65.8 67 68.3 113.1V819.4c0.1 16.9-14.3 30.9-32 30.9zM137.8 759h782.3v60.3c0 0.2 0.7 1 2.1 1s2.1-0.8 2.1-1V593.9c-2.3-38.4-24.9-73-60.6-92.7L856 497V213.7s-0.1-0.2-0.3-0.4c-0.4-0.4-1.1-0.6-1.9-0.6H204.1c-1.3 0-2 0.8-2 1v283.5l-7.8 4.3c-35.7 19.5-58.3 54-60.7 92.4v225.4c0 0.2 0.7 1 2.1 1 1.4 0 2.1-0.8 2.1-1V759z m782.4-2.4H137.8V598.8h782.3v157.8z m-752.4-30h722.3v-97.7H167.8v97.7z m754.5-129.7H134.6l3.5-17.8c5.8-30.1 27.3-57.8 60.6-77.9 32.2-19.5 72.8-30.3 114.2-30.3h432.9c41.5 0 82.1 10.8 114.1 30.3 33.2 20.3 54.4 48.1 59.4 78.3l3 17.4z m-748.4-30h710c-7.5-14.9-21.1-28.8-39.7-40.1-27.4-16.7-62.4-25.9-98.5-25.9H312.9c-36.1 0-71.1 9.2-98.7 25.9-18.6 11.3-32.5 25.1-40.3 40.1z m677.9-73.8l-20.7-8.5c-20.4-8.4-42-13.7-64.2-16l3-29.8c17.7 1.8 35.1 5.3 51.9 10.6V244.7H236.2v203.8c16.8-5.1 34.2-8.5 51.9-10.1l2.7 29.9c-22.1 2-43.7 7.1-64.1 15.2l-20.5 8.1v-277h645.6v278.5z m-117.6-24H597.4v-30h136.8v30z m-273.3-0.1H323.8v-30h137.1v30z m102.2-0.4h-68.4v-30h68.4v30z"  /><path fill="#e8989a" d="M766 323.1c-9.1-8.9-21.7-13.3-37.7-13.3-4.4 0-9 0.8-13.6 2.3-4.6 1.5-8.9 3.6-12.9 6.2s-7.4 5-10.3 7.4c-2.9 2.3-5.6 4.7-8.2 7.3-2.6-2.6-5.3-5-8.2-7.3-2.9-2.3-6.3-4.8-10.3-7.4-4-2.6-8.3-4.7-12.9-6.2s-9.2-2.3-13.6-2.3c-16 0-28.6 4.4-37.7 13.3-9.1 8.9-13.6 21.2-13.6 37 0 4.8 0.9 9.7 2.6 14.8 1.7 5.1 3.6 9.4 5.7 13 2.1 3.6 4.6 7.1 7.3 10.5 2.7 3.4 4.7 5.7 6 7 1.2 1.3 2.2 2.2 2.9 2.8l67 64.7c1.3 1.3 2.9 2 4.7 2 1.8 0 3.4-0.6 4.7-2l66.9-64.5c16.4-16.4 24.6-32.5 24.6-48.3 0.2-15.8-4.3-28.1-13.4-37z m-20.3 75.2l-62.3 60.1-62.4-60.2c-13.4-13.4-20.1-26.1-20.1-38.2 0-5.8 0.8-10.9 2.3-15.4 1.5-4.5 3.5-8 5.9-10.6 2.4-2.6 5.3-4.8 8.8-6.4 3.4-1.6 6.8-2.8 10.1-3.3 3.3-0.6 6.8-0.9 10.5-0.9s7.7 0.9 12.1 2.7c4.3 1.8 8.3 4.1 11.9 6.9 3.6 2.8 6.7 5.4 9.3 7.7 2.6 2.4 4.7 4.6 6.4 6.6 1.3 1.6 3 2.3 5.3 2.3 2.2 0 4-0.8 5.3-2.3 1.7-2 3.9-4.2 6.4-6.6 2.6-2.4 5.7-5 9.3-7.7 3.6-2.8 7.6-5 11.9-6.9 4.3-1.9 8.3-2.7 12.1-2.7 3.8 0 7.2 0.3 10.5 0.9 3.3 0.6 6.7 1.7 10.1 3.3 3.4 1.6 6.4 3.8 8.8 6.4s4.4 6.1 5.9 10.6c1.5 4.4 2.3 9.6 2.3 15.4-0.2 12.1-6.9 24.9-20.4 38.3z m0 0"  /><path fill="#e8989a" d="M683.4 478.9c-2.8 0-5.5-1.1-7.5-3.1L609 411.2c-0.7-0.6-1.7-1.6-3.1-3-1.5-1.6-3.7-4.1-6.2-7.3-3-3.8-5.5-7.3-7.6-10.9-2.3-3.8-4.3-8.4-6.1-13.8-1.8-5.5-2.8-10.9-2.8-16.1 0-16.9 5-30.3 14.8-39.8 9.8-9.6 23.5-14.4 40.5-14.4 4.9 0 9.9 0.8 14.9 2.5 4.9 1.6 9.6 3.9 13.8 6.7 3.8 2.5 7.3 5 10.5 7.6 2 1.6 3.9 3.2 5.7 4.9 1.9-1.8 3.8-3.4 5.7-4.9 2.7-2.2 6.2-4.7 10.5-7.6 4.5-2.9 9-5.1 13.8-6.7 5.1-1.7 10-2.5 14.9-2.5 17 0 30.7 4.9 40.5 14.4 9.8 9.6 14.8 23 14.9 39.9 0 16.8-8.7 34-25.8 51.2L691 475.9c-2.1 1.9-4.7 3-7.6 3z m-44.9-165.1c-14.9 0-26.6 4.1-34.9 12.2-8.3 8.1-12.4 19.3-12.4 34.1 0 4.3 0.8 8.9 2.4 13.6 1.6 4.8 3.4 8.9 5.4 12.2 1.9 3.3 4.2 6.6 7 10 2.4 3 4.4 5.4 5.7 6.8 1.3 1.3 2.2 2.1 2.6 2.5l0.2 0.2 67 64.7c0.6 0.6 1.2 0.8 1.9 0.8 0.8 0 1.3-0.2 1.8-0.7l0.1-0.1 66.9-64.5c15.5-15.5 23.4-30.8 23.4-45.4 0-14.8-4.1-26-12.4-34.1-8.4-8.2-19.8-12.2-34.9-12.2-4 0-8.1 0.7-12.3 2.1-4.2 1.4-8.1 3.3-12 5.8-4.1 2.7-7.4 5.1-9.9 7.1-2.6 2.1-5.2 4.4-7.8 7l-2.8 2.8-2.8-2.8c-2.4-2.4-5-4.7-7.8-7-3-2.4-6.3-4.8-9.9-7.1-3.7-2.4-7.7-4.4-12-5.8-4.4-1.5-8.5-2.2-12.5-2.2zM683.4 464l-65.2-62.9c-14.2-14.2-21.3-28-21.3-41 0-6.2 0.8-11.8 2.5-16.7 1.7-5 3.9-8.9 6.7-12 2.7-3 6.1-5.5 10-7.3 3.8-1.8 7.5-3 11.1-3.7 3.5-0.6 7.3-0.9 11.2-0.9 4.3 0 8.9 1 13.6 3.1 4.8 2 8.9 4.5 12.8 7.4 3.4 2.6 6.5 5.2 9.5 8 2.6 2.4 4.9 4.7 6.8 7l0.1 0.1c0.3 0.4 0.9 0.9 2.2 0.9 1.3 0 1.8-0.4 2.2-0.9 1.8-2.1 4-4.4 6.8-7 2.7-2.5 5.9-5.1 9.6-8 4-3 8.1-5.4 12.7-7.4 4.7-2 9.3-3.1 13.6-3.1 3.8 0 7.5 0.3 11.2 0.9 3.6 0.6 7.3 1.8 11.2 3.7 3.9 1.9 7.2 4.3 10 7.3 2.8 3.1 5.1 7.1 6.7 12 1.7 4.8 2.5 10.4 2.5 16.7 0.1 13.2-6.9 26.7-21.3 41.1l-0.1 0.1-65.1 62.6z m-45-136.5c-3.5 0-6.8 0.3-9.8 0.8-2.9 0.5-6 1.5-9.1 3-3 1.4-5.5 3.3-7.5 5.5-2.1 2.2-3.7 5.3-5.1 9.2-1.4 4-2.1 8.8-2.1 14.1 0 10.9 6.4 22.8 18.9 35.3l59.6 57.5 59.5-57.4c12.6-12.6 19-24.6 18.9-35.4 0-5.4-0.7-10.1-2.1-14.1-1.3-3.9-3-7-5.1-9.2-2-2.2-4.6-4.1-7.5-5.5-3.2-1.5-6.2-2.5-9-3-3.2-0.5-6.5-0.8-9.8-0.8-3.2 0-6.8 0.8-10.5 2.4-4 1.7-7.6 3.8-11 6.4-3.5 2.7-6.5 5.2-9 7.5-2.5 2.4-4.5 4.4-6.1 6.3-2.1 2.5-5 3.8-8.3 3.8-3.4 0-6.3-1.3-8.3-3.8-1.7-2-3.8-4.1-6.1-6.2-2.8-2.6-5.8-5.1-9-7.5-3.3-2.6-6.9-4.7-11-6.4-3.8-1.7-7.3-2.5-10.5-2.5z"  /><path fill="#e8989a" d="M459.7 323.1c-9.1-8.9-21.7-13.3-37.7-13.3-4.4 0-9 0.8-13.6 2.3-4.6 1.5-8.9 3.6-12.9 6.2s-7.4 5-10.3 7.4c-2.9 2.3-5.6 4.7-8.2 7.3-2.6-2.6-5.3-5-8.2-7.3-2.9-2.3-6.3-4.8-10.3-7.4-4-2.6-8.3-4.7-12.9-6.2s-9.2-2.3-13.6-2.3c-16 0-28.6 4.4-37.7 13.3-9.1 8.9-13.6 21.2-13.6 37 0 4.8 0.9 9.7 2.6 14.8 1.7 5.1 3.6 9.4 5.7 13 2.1 3.6 4.6 7.1 7.3 10.5 2.7 3.4 4.7 5.7 6 7 1.2 1.3 2.2 2.2 2.9 2.8l67 64.7c1.3 1.3 2.9 2 4.7 2 1.8 0 3.4-0.6 4.7-2l66.9-64.5c16.4-16.4 24.6-32.5 24.6-48.3 0.2-15.8-4.3-28.1-13.4-37z m-20.3 75.2L377 458.4l-62.4-60.2c-13.4-13.4-20.1-26.1-20.1-38.2 0-5.8 0.8-10.9 2.3-15.4 1.5-4.5 3.5-8 5.9-10.6 2.4-2.6 5.3-4.8 8.8-6.4 3.4-1.6 6.8-2.8 10.1-3.3 3.3-0.6 6.8-0.9 10.5-0.9s7.7 0.9 12.1 2.7c4.3 1.8 8.3 4.1 11.9 6.9 3.6 2.8 6.7 5.4 9.3 7.7 2.6 2.4 4.7 4.6 6.4 6.6 1.3 1.6 3 2.3 5.3 2.3 2.2 0 4-0.8 5.3-2.3 1.7-2 3.9-4.2 6.4-6.6 2.6-2.4 5.7-5 9.3-7.7 3.6-2.8 7.6-5 11.9-6.9 4.3-1.9 8.3-2.7 12.1-2.7 3.8 0 7.2 0.3 10.5 0.9 3.3 0.6 6.7 1.7 10.1 3.3 3.4 1.6 6.4 3.8 8.8 6.4 2.4 2.6 4.4 6.1 5.9 10.6 1.5 4.4 2.3 9.6 2.3 15.4-0.1 12.1-6.9 24.9-20.3 38.3z m0 0"  /><path fill="#e8989a" d="M377 478.9c-2.8 0-5.5-1.1-7.5-3.1l-66.9-64.6c-0.7-0.6-1.8-1.6-3.1-3-1.5-1.5-3.7-4.1-6.2-7.3-3-3.8-5.5-7.3-7.6-10.9-2.3-3.8-4.3-8.4-6.1-13.8-1.8-5.5-2.8-10.9-2.8-16.1 0-16.9 5-30.3 14.8-39.8 9.8-9.6 23.5-14.4 40.5-14.4 4.9 0 9.9 0.8 14.9 2.5 4.9 1.6 9.6 3.9 13.8 6.7 3.8 2.5 7.3 5 10.5 7.6 2 1.6 3.9 3.2 5.7 4.9 1.9-1.8 3.8-3.4 5.7-4.9 2.7-2.2 6.2-4.7 10.5-7.6 4.5-2.9 9-5.1 13.8-6.7 5.1-1.7 10-2.5 14.9-2.5 17 0 30.7 4.9 40.5 14.4 9.8 9.6 14.8 23 14.9 39.9 0 16.8-8.7 34-25.8 51.2l-66.9 64.5c-2 1.9-4.6 3-7.6 3z m-44.9-165.1c-14.9 0-26.6 4.1-34.9 12.2-8.3 8.1-12.4 19.3-12.4 34.1 0 4.3 0.8 8.9 2.4 13.6 1.6 4.8 3.4 8.9 5.4 12.2 2 3.3 4.2 6.6 7 10 2.4 3 4.4 5.4 5.7 6.8 1.3 1.3 2.2 2.1 2.6 2.5l0.2 0.2 67 64.7c0.6 0.6 1.2 0.8 1.9 0.8 0.8 0 1.3-0.2 1.8-0.7l0.1-0.1 66.9-64.5c15.5-15.5 23.4-30.8 23.4-45.4 0-14.8-4.1-26-12.4-34.1-8.4-8.2-19.8-12.2-34.9-12.2-4 0-8.1 0.7-12.3 2.1-4.2 1.4-8.1 3.3-12 5.8-4.1 2.7-7.4 5.1-9.9 7.1-2.6 2.1-5.2 4.4-7.8 7l-2.8 2.8-2.8-2.8c-2.4-2.4-5-4.7-7.8-7-3-2.4-6.3-4.8-9.9-7.1-3.7-2.4-7.7-4.4-12-5.8-4.3-1.5-8.4-2.2-12.5-2.2zM377 464l-65.2-62.9c-14.2-14.2-21.3-28-21.3-41 0-6.2 0.8-11.8 2.5-16.7 1.7-5 3.9-8.9 6.7-12 2.7-3 6.1-5.5 10-7.3 3.8-1.8 7.5-3 11.1-3.7 3.5-0.6 7.3-0.9 11.2-0.9 4.3 0 8.9 1 13.6 3.1 4.8 2 8.9 4.5 12.8 7.4 3.4 2.6 6.5 5.2 9.5 8 2.6 2.4 4.9 4.7 6.8 7l0.1 0.1c0.3 0.4 0.9 0.9 2.2 0.9 1.3 0 1.8-0.4 2.2-0.9 1.8-2.1 4-4.4 6.8-7 2.7-2.5 5.9-5.1 9.6-8 4-3 8.1-5.4 12.7-7.4 4.7-2 9.3-3.1 13.6-3.1 3.8 0 7.5 0.3 11.2 0.9 3.6 0.6 7.3 1.8 11.2 3.7 3.9 1.9 7.2 4.3 10 7.3 2.8 3.1 5.1 7.1 6.7 12 1.7 4.8 2.5 10.4 2.5 16.7 0.1 13.2-6.9 26.7-21.3 41.1l-0.1 0.1L377 464z m-44.9-136.5c-3.5 0-6.8 0.3-9.8 0.8-2.9 0.5-6 1.5-9.1 3-3 1.4-5.5 3.3-7.5 5.5-2.1 2.2-3.7 5.3-5.1 9.2-1.4 4-2.1 8.8-2.1 14.1 0 10.9 6.4 22.8 18.9 35.3l59.6 57.5 59.5-57.4c12.6-12.6 19-24.6 18.9-35.4 0-5.4-0.7-10.1-2.1-14.1-1.3-3.9-3-7-5.1-9.2-2-2.2-4.6-4.1-7.5-5.5-3.2-1.5-6.2-2.5-9-3-3.2-0.5-6.5-0.8-9.8-0.8-3.2 0-6.8 0.8-10.5 2.4-4 1.7-7.6 3.8-11 6.4-3.5 2.7-6.5 5.2-9 7.5-2.5 2.4-4.5 4.4-6.1 6.3-2.1 2.5-5 3.8-8.3 3.8-3.4 0-6.3-1.3-8.3-3.8-1.7-2-3.8-4.1-6.1-6.2-2.8-2.6-5.8-5.1-9-7.5-3.3-2.6-6.9-4.7-11-6.4-3.8-1.7-7.3-2.5-10.5-2.5z"  /><path fill="#e8989a" d="M767.6 498H284.1c-4.4 0-7.9-3.5-7.9-7.9v-39.7c0-4.4 3.5-7.9 7.9-7.9h483.5c4.4 0 7.9 3.5 7.9 7.9v39.7c0 4.4-3.5 7.9-7.9 7.9z"  /><path fill="#e8989a" d="M767.6 502H284.1c-6.6 0-11.9-5.3-11.9-11.9v-39.7c0-6.6 5.3-11.9 11.9-11.9h483.5c6.6 0 11.9 5.3 11.9 11.9v39.7c0 6.6-5.3 11.9-11.9 11.9z m-483.5-55.5c-2.2 0-3.9 1.8-3.9 3.9v39.7c0 2.2 1.8 3.9 3.9 3.9h483.5c2.2 0 3.9-1.8 3.9-3.9v-39.7c0-2.2-1.8-3.9-3.9-3.9H284.1z"  /></svg>