<?xml version="1.0" standalone="no"?><!DOCTYPE svg PUBLIC "-//W3C//DTD SVG 1.1//EN" "http://www.w3.org/Graphics/SVG/1.1/DTD/svg11.dtd"><svg class="icon" width="200px" height="200.00px" viewBox="0 0 1024 1024" version="1.1" xmlns="http://www.w3.org/2000/svg"><path fill="#e8989a" d="M86.5 322.7L513.4 75.9l427.1 246.2 0.4 226.9 59.7-0.1-0.5-261.2L513.3 7 26.9 288.3l0.3 708.8h14.9v14.9h201.4v-59.7H86.9z"  /><path fill="#e8989a" d="M318 952.3h634v59.7H318zM200.36 326.394l286.628-172.031 30.722 51.187-286.63 172.03zM167.9 341.8c-20.7 0-37.6 16.9-37.6 37.6 0 20.7 16.9 37.6 37.6 37.6 20.7 0 37.6-16.9 37.6-37.6 0.1-20.7-16.8-37.6-37.6-37.6z m7.8 37.6c0 8.6-15.5 8.6-15.5 0s15.5-8.6 15.5 0zM892.3 543.2H392.6v82H273.3v283.4h723.5V625.2H892.3v-82zM862.5 573v231.2H641.2V573h221.3z m-440 0h190.8v231.2H422.5V573z m514.6 111.9V849H333V684.9h59.7V834h499.7V684.9h44.7z"  /></svg>