<?xml version="1.0" standalone="no"?><!DOCTYPE svg PUBLIC "-//W3C//DTD SVG 1.1//EN" "http://www.w3.org/Graphics/SVG/1.1/DTD/svg11.dtd"><svg class="icon" width="200px" height="200.00px" viewBox="0 0 1024 1024" version="1.1" xmlns="http://www.w3.org/2000/svg"><path d="M291.5 418.8h169.1c10.4 0 18.8 8.4 18.8 18.8v37.6c0 10.4-8.4 18.8-18.8 18.8H291.5c-10.4 0-18.8-8.4-18.8-18.8v-37.6c0.1-10.4 8.5-18.8 18.8-18.8zM573.3 418.8h169.1c10.4 0 18.8 8.4 18.8 18.8v37.6c0 10.4-8.4 18.8-18.8 18.8H573.3c-10.4 0-18.8-8.4-18.8-18.8v-37.6c0-10.4 8.4-18.8 18.8-18.8z" fill="#00E7DD" /><path d="M817.7 784.7h-75.1c-10.4 0-18.8 8.4-18.8 18.8s8.4 18.8 18.8 18.8h75.1c10.4 0 18.8-8.4 18.8-18.8s-8.4-18.8-18.8-18.8z m-526 0h-75.1c-10.4 0-18.8 8.4-18.8 18.8s8.4 18.8 18.8 18.8h75.1c10.4 0 18.8-8.4 18.8-18.8s-8.4-18.8-18.8-18.8z m375.7-225.5c-10.4 0-18.8 8.4-18.8 18.8v75.1c0 10.4 8.4 18.8 18.8 18.8s18.8-8.4 18.8-18.8V578c0-10.3-8.4-18.8-18.8-18.8z m-300.6 0c-10.4 0-18.8 8.4-18.8 18.8v75.1c0 10.4 8.4 18.8 18.8 18.8s18.8-8.4 18.8-18.8V578c0-10.3-8.4-18.8-18.8-18.8z m469.7-75.1V258.7c0-20.7-16.8-37.6-37.6-37.6H746C709.9 177.4 631.6 146 517.1 146s-192.8 31.4-228.9 75.1h-52.9c-20.7 0-37.6 16.8-37.6 37.6v225.4c-20.7 0-37.6 16.8-37.6 37.6v187.8c0 20.7 16.8 37.6 37.6 37.6h638.7c20.7 0 37.6-16.8 37.6-37.6V521.7c0-20.8-16.8-37.6-37.5-37.6zM235.4 277.5c0-10.4 8.4-18.8 18.8-18.8h56.4c0-41.5 82.1-75.1 206.6-75.1s206.6 33.6 206.6 75.1h56.4c10.4 0 18.8 8.4 18.8 18.8v187.8c0 10.4-8.4 18.8-18.8 18.8h-18.8v-56.4c0-20.7-16.8-37.6-37.6-37.6H573.5c-20.7 0-37.6 16.8-37.6 37.6v56.4h-37.6v-56.4c0-20.7-16.8-37.6-37.6-37.6H310.5c-20.7 0-37.6 16.8-37.6 37.6v56.4h-18.8c-10.4 0-18.8-8.4-18.8-18.8V277.5z m488.4 169v18.8c0 10.4-8.4 18.8-18.8 18.8H592.3c-10.4 0-18.8-8.4-18.8-18.8v-18.8c0-10.4 8.4-18.8 18.8-18.8H705c10.3 0.1 18.8 8.5 18.8 18.8z m-263 0v18.8c0 10.4-8.4 18.8-18.8 18.8H329.3c-10.4 0-18.8-8.4-18.8-18.8v-18.8c0-10.4 8.4-18.8 18.8-18.8H442c10.4 0.1 18.8 8.5 18.8 18.8z m375.7 244.2c0 10.4-8.4 18.8-18.8 18.8H216.6c-10.4 0-18.8-8.4-18.8-18.8V540.5c0-10.4 8.4-18.8 18.8-18.8h601.1c10.4 0 18.8 8.4 18.8 18.8v150.2zM517.1 559.2c-10.4 0-18.8 8.4-18.8 18.8v75.1c0 10.4 8.4 18.8 18.8 18.8s18.8-8.4 18.8-18.8V578c0-10.3-8.4-18.8-18.8-18.8z" fill="#008CFF" /></svg>