<?xml version="1.0" standalone="no"?><!DOCTYPE svg PUBLIC "-//W3C//DTD SVG 1.1//EN" "http://www.w3.org/Graphics/SVG/1.1/DTD/svg11.dtd"><svg class="icon" width="200px" height="200.00px" viewBox="0 0 1024 1024" version="1.1" xmlns="http://www.w3.org/2000/svg"><path fill="#e8989a" d="M608 224v-64H416v64h192zM160 544v288a32 32 0 0 0 32 32h640a32 32 0 0 0 32-32V544h-96a32 32 0 0 1 0-64h96V320a32 32 0 0 0-32-32h-64a32 32 0 0 1 0-64h64a96 96 0 0 1 96 96v512a96 96 0 0 1-96 96H192a96 96 0 0 1-96-96V320a96 96 0 0 1 96-96h160v-64a64 64 0 0 1 64-64h192a64 64 0 0 1 64 64v96a32 32 0 0 1-32 32H192a32 32 0 0 0-32 32v160h96a32 32 0 0 1 0 64h-96z m224 128a64 64 0 0 1-64-64v-64a64 64 0 0 1 64-64h32v-32a64 64 0 0 1 64-64h64a64 64 0 0 1 64 64v32h32a64 64 0 0 1 64 64v64a64 64 0 0 1-64 64h-32v32a64 64 0 0 1-64 64h-64a64 64 0 0 1-64-64v-32h-32z m0-128v64h96v96h64v-96h96v-64h-96v-96h-64v96h-96z"  /></svg>