<?xml version="1.0" standalone="no"?><!DOCTYPE svg PUBLIC "-//W3C//DTD SVG 1.1//EN" "http://www.w3.org/Graphics/SVG/1.1/DTD/svg11.dtd"><svg class="icon" width="200px" height="200.00px" viewBox="0 0 1024 1024" version="1.1" xmlns="http://www.w3.org/2000/svg"><path d="M783.561504 273.841826h-62.962849V192.015522c0-46.187807-37.568868-83.756675-83.756675-83.756675H384.787388c-46.187807 0-83.756675 37.568868-83.756675 83.756675v81.826304H238.06222C156.591511 273.841826 90.309778 340.123559 90.309778 421.594267v346.3888c0 81.470709 66.281733 147.758086 147.752442 147.758086h545.504928c81.476353 0 147.758086-66.287377 147.758086-147.758086V421.594267c-0.005644-81.470709-66.287377-147.752442-147.76373-147.752441z m-102.473377 0H340.541241V192.015522c0-24.394929 19.851218-44.246147 44.246147-44.246147h252.054592c24.394929 0 44.246147 19.851218 44.246147 44.246147v81.826304z" fill="#645D5D" /><path d="M891.809062 767.988711c0 59.683475-48.564083 108.247558-108.247558 108.247558H238.06222C178.378745 876.230625 129.820306 827.672186 129.820306 767.988711v-346.394444c0-59.689119 48.558439-108.241914 108.241914-108.241913h545.504928c59.683475 0 108.247558 48.558439 108.247558 108.241913v346.394444z" fill="#F8FCE1" /><path d="M594.543137 603.353985h-33.871811v-33.866167a49.862286 49.862286 0 1 0-99.713284 0v33.866167h-33.871811a49.862286 49.862286 0 0 0 0 99.713284h33.871811v33.877456a49.856642 49.856642 0 0 0 99.713284 0v-33.877456h33.871811a49.856642 49.856642 0 0 0 0-99.713284zM783.561504 313.352354H238.06222C178.378745 313.352354 129.820306 361.910793 129.820306 421.594267v15.883233h761.988756v-15.883233c0-59.683475-48.564083-108.241914-108.247558-108.241913z" fill="#92BB17" /></svg>