<?xml version="1.0" standalone="no"?><!DOCTYPE svg PUBLIC "-//W3C//DTD SVG 1.1//EN" "http://www.w3.org/Graphics/SVG/1.1/DTD/svg11.dtd"><svg class="icon" width="200px" height="200.00px" viewBox="0 0 1024 1024" version="1.1" xmlns="http://www.w3.org/2000/svg"><path d="M873.8 922H150.2c-39.3 0-71.4-32.1-71.4-71.4V326.5c0-39.3 32.1-71.4 71.4-71.4h723.6c39.3 0 71.4 32.1 71.4 71.4v524.1c0 39.3-32.1 71.4-71.4 71.4z" fill="#54D3CC" /><path d="M873.8 937H150.2c-47.7 0-86.4-38.8-86.4-86.4V326.5c0-47.7 38.8-86.4 86.4-86.4h723.6c47.7 0 86.4 38.8 86.4 86.4v524.1c0 47.7-38.8 86.4-86.4 86.4zM150.2 270c-31.1 0-56.4 25.3-56.4 56.4v524.1c0 31.1 25.3 56.4 56.4 56.4h723.6c31.1 0 56.4-25.3 56.4-56.4v-524c0-31.1-25.3-56.4-56.4-56.4H150.2z" fill="#2A4964" /><path d="M727 269.9H297V150.3c0-37.2 30.2-67.4 67.4-67.4h295.2c37.2 0 67.4 30.2 67.4 67.4v119.6z m-400-30h370v-89.6c0-20.6-16.8-37.4-37.4-37.4H364.4c-20.6 0-37.4 16.8-37.4 37.4v89.6z" fill="#2A4964" /><path d="M512.8 599.4m-200 0a200 200 0 1 0 400 0 200 200 0 1 0-400 0Z" fill="#DDF0F0" /><path d="M512.8 814.4c-57.4 0-111.4-22.4-152-63-40.6-40.6-63-94.6-63-152s22.4-111.4 63-152c40.6-40.6 94.6-63 152-63 57.4 0 111.4 22.4 152 63 40.6 40.6 63 94.6 63 152s-22.4 111.4-63 152c-40.6 40.6-94.6 63-152 63z m0-400c-102 0-185 83-185 185s83 185 185 185 185-83 185-185-83-185-185-185z" fill="#2A4964" /><path d="M520.6 706.3H505c-6.6 0-12-5.4-12-12V504.5c0-6.6 5.4-12 12-12h15.6c6.6 0 12 5.4 12 12v189.8c0 6.6-5.4 12-12 12z" fill="#F25168" /><path d="M405.9 607.2v-15.6c0-6.6 5.4-12 12-12h189.8c6.6 0 12 5.4 12 12v15.6c0 6.6-5.4 12-12 12H417.9c-6.6 0-12-5.4-12-12z" fill="#F25168" /><path d="M236.8 255.9h-76c-6.6 0-12-5.4-12-12v-12c0-6.6 5.4-12 12-12h76c6.6 0 12 5.4 12 12v12c0 6.6-5.4 12-12 12zM863.2 255.9h-76c-6.6 0-12-5.4-12-12v-12c0-6.6 5.4-12 12-12h76c6.6 0 12 5.4 12 12v12c0 6.6-5.4 12-12 12z" fill="#284862" /><path d="M751.5 348.9H831.8c1.1 0 3.1-0.3 4.1 0.2-2.3-0.3-2.8-0.4-1.4-0.2 0.7 0.1 1.3 0.3 2 0.4 1.3 0.3 2.5 0.7 3.8 1.1 3.4 1-0.4-0.3-0.6-0.3 1.8 0.1 4.1 2.3 5.7 3.2 3.6 2.1-2.5-2.6 0.4 0.3 0.8 0.8 1.6 1.5 2.3 2.2 0.6 0.6 1.9 1.6 2.2 2.4-1.5-2-1.6-2.1-0.5-0.5 0.2 0.4 0.5 0.7 0.7 1.1 0.7 1.1 1.3 2.3 1.9 3.4 2 3.4-0.3-2.4 0-0.1 0.3 2 1.2 4.4 1.8 6.4 0.7 2.5 0-4.4 0-0.1 0-3.2 0.1 6 0.1 2.8v0.1c0.3 24.4 0 48.8 0 73.2v311.8c0 27.6-0.6 55.3 0 82.9v1.2c0 9.4 8.3 18.4 18 18 9.8-0.4 18-7.9 18-18v-70.3-155.3-160.3c0-27.5 0.1-54.9 0-82.4-0.1-15.1-5.4-29-15.3-40.3-11.7-13.3-28.8-19-46-19H751.7c-9.4 0-18.4 8.3-18 18 0.2 9.8 7.7 18.1 17.8 18.1z" fill="#FFFFFF" /></svg>