<?xml version="1.0" standalone="no"?><!DOCTYPE svg PUBLIC "-//W3C//DTD SVG 1.1//EN" "http://www.w3.org/Graphics/SVG/1.1/DTD/svg11.dtd"><svg class="icon" width="200px" height="200.00px" viewBox="0 0 1024 1024" version="1.1" xmlns="http://www.w3.org/2000/svg"><path d="M403.6 234.9c-33.5 63.2-88.1 105.6-126.2 136.5l67.8 47.7s62.6-39.8 133.3-136.4" fill="#66E3AA" /><path d="M728.7 332.9h-248l-69.3-80-192.9 14.2-24-140.1 24.5-3.4c78.1-10.9 240.6-33.5 361.5-27.4 28.4 1.5 55.4 12.8 75.9 31.9l89.8 82.9-17.5 121.9z m-226-48h184.4l8-55.8-71.3-65.8c-12.4-11.5-28.6-18.3-45.8-19.2-105.1-5.3-245.3 12.3-327.9 23.6l8.3 48.4L432 203.3l70.7 81.6z" fill="#0071BC" /><path d="M731.9 412.4H467.7V284.9h264.2v127.5z m-216.2-48h168.2v-31.5H515.7v31.5z" fill="#0071BC" /><path d="M692.3 927H421.5c-27.5 0-56.3-27.1-77-72.4-17.4-37.9-25.8-81.7-23.7-123.3 2.6-51.7 21.4-99.2 54.3-137.4C425 536 453.7 471.5 468 384.5l47.4 7.8c-15.8 96.2-47.9 168.1-103.9 233-63 73.1-40.2 162.5-31.7 188.2 14.2 42.8 35.4 63.7 42.1 65.5h270.4c2.9-0.2 15.8-6.7 35.8-33.2 15.7-20.9 28.2-44 32-53.8 44.1-113.6-5.4-230.7-53.3-344-7.1-16.7-14.4-34-21.1-50.7l44.5-17.9c6.6 16.3 13.5 32.7 20.8 49.9 49.2 116.4 105 248.4 53.8 380.1-5.9 15.1-21.2 42.6-39.1 66.2-26.2 34.6-50.2 51.4-73.4 51.4z m-270.1-47.9zM278.981 142.34l46.603-11.486 24.6 99.808-46.603 11.486z" fill="#0071BC" /><path d="M426.2 753.2h294.6v48H426.2zM527.9 469.5h163.2v48H527.9z" fill="#0071BC" /></svg>