<?xml version="1.0" standalone="no"?><!DOCTYPE svg PUBLIC "-//W3C//DTD SVG 1.1//EN" "http://www.w3.org/Graphics/SVG/1.1/DTD/svg11.dtd"><svg class="icon" width="200px" height="200.00px" viewBox="0 0 1024 1024" version="1.1" xmlns="http://www.w3.org/2000/svg"><path d="M498.3 198.6c0.2 0.1 0.5 0.2 0.7 0.3 0.3 0.2 0.6 0.4 0.9 0.5 2.1 1 6.2 2.4 12 2.3 5.8 0.1 9.9-1.3 12-2.3 0.3-0.2 0.6-0.4 0.9-0.5 0.2-0.1 0.5-0.2 0.7-0.3 53.8-29.5 72.5-99.1 72.8-100.3v-0.1H425.6s0.2 0.9 0.5 2.4c3.8 12.5 23.8 71.5 72.2 98z m0 0" fill="#FBA91C" /><path d="M696.2 715V350.7l0.2 0.1v-0.1l64.4 34.9c17.7 9.6 26.7-0.5 30-5.9l54-117.5c6.2-17.2-3.1-28.3-8-32.7l-115.7-86.3-122.7-45c-0.3 1.2-19 70.9-72.8 100.4-0.2 0.1-0.5 0.2-0.7 0.3-0.3 0.2-0.6 0.4-0.9 0.5-2.1 1-6.2 2.4-12 2.3-5.8 0.2-9.9-1.3-12-2.3-0.3-0.2-0.6-0.4-0.9-0.5-0.2-0.1-0.5-0.2-0.7-0.3-53.8-29.5-72.5-99.1-72.8-100.4L302.9 143l-115.7 86.3c-4.9 4.4-14.2 15.5-8 32.7l54 117.5c3.3 5.4 12.3 15.5 30 5.9l64.4-34.9v0.1l0.2-0.1V715c0 12.7 9.1 23 20.4 23h327.7c11.2 0 20.3-10.3 20.3-23z m0 0" fill="#FEBF55" /><path d="M334.8 350.8h-7.5V715c0 12.7 9.1 23 20.4 23h13.6V381.7c0-24.6-16.5-29.9-26.5-30.9z m0 0M502.5 161.9H495v541.9c0 18.9 9.1 34.2 20.4 34.2H529V207.9c0-36.7-16.5-44.6-26.5-46z m0 0M689.2 350.8c-10 0.9-26.5 6.2-26.5 30.9V738h13.6c11.3 0 20.4-10.3 20.4-23V350.8h-7.5z m0 0" fill="#FBA91C" /><path d="M630.3 928.4h1.9c106.5 0 196.5-89 210.2-208l3.7-32.2c0.8-10.2 8.4-17.9 17.4-17.9h0.3c5.6 0 10.1-5.1 10.1-11.4v-13.3c0-4.2-3-7.5-6.7-7.5H156.8c-3.7 0-6.7 3.4-6.7 7.5v13.3c0 6.3 4.5 11.4 10.1 11.4h0.3c9 0 16.6 7.8 17.4 17.9l3.7 32.2c13.7 119 103.7 208 210.2 208h238.5z" fill="#1386FA" /><path d="M853.5 673.8c2.9-2.3 6.3-3.6 10.1-3.6h0.3c5.6 0 10.1-5.1 10.1-11.4v-13.3c0-4.2-3-7.5-6.7-7.5H156.8c-3.7 0-6.7 3.4-6.7 7.5v13.3c0 6.3 4.5 11.4 10.1 11.4h0.3c3.7 0 7.2 1.3 10.1 3.6h682.9z" fill="#5BC1FB" /><path d="M860.6 628.7H163.4c-7.4 0-13.4 6-13.4 13.4v11.5h723.9v-11.5c0-7.4-5.9-13.4-13.3-13.4z" fill="#1386FA" /><path d="M231 656a75.6 85.2 0 1 0 151.2 0 75.6 85.2 0 1 0-151.2 0Z" fill="#FFFFFF" /><path d="M296.6 588.7a75.6 85.2 0 1 0 151.2 0 75.6 85.2 0 1 0-151.2 0Z" fill="#FFFFFF" /><path d="M347.1 698a75.6 85.2 0 1 0 151.2 0 75.6 85.2 0 1 0-151.2 0Z" fill="#FFFFFF" /><path d="M422.7 570.8a75.6 85.2 0 1 0 151.2 0 75.6 85.2 0 1 0-151.2 0Z" fill="#FFFFFF" /><path d="M523.8 628.7a75.6 85.2 0 1 0 151.2 0 75.6 85.2 0 1 0-151.2 0Z" fill="#FFFFFF" /><path d="M482.1 713.9a75.6 85.2 0 1 0 151.2 0 75.6 85.2 0 1 0-151.2 0Z" fill="#FFFFFF" /><path d="M461.7 673.8a75.6 85.2 0 1 0 151.2 0 75.6 85.2 0 1 0-151.2 0Z" fill="#FFFFFF" /><path d="M641.8 612.9a75.6 85.2 0 1 0 151.2 0 75.6 85.2 0 1 0-151.2 0Z" fill="#FFFFFF" /><path d="M595.3 698a75.6 85.2 0 1 0 151.2 0 75.6 85.2 0 1 0-151.2 0Z" fill="#FFFFFF" /></svg>