<?xml version="1.0" standalone="no"?><!DOCTYPE svg PUBLIC "-//W3C//DTD SVG 1.1//EN" "http://www.w3.org/Graphics/SVG/1.1/DTD/svg11.dtd"><svg class="icon" width="200px" height="200.00px" viewBox="0 0 1024 1024" version="1.1" xmlns="http://www.w3.org/2000/svg"><path d="M844.6 471.4c35.5-35.5 51.7-82.8 49.1-129.3-0.4-7.2-9.1-10.5-14.2-5.4L825.2 391c-3.5 3.5-8.7 4.8-13.5 3.3l-93.2-29.9c-4.5-1.4-8-5-9.4-9.5l-27.7-90.4c-1.6-5.2-0.2-10.8 3.6-14.6l56.1-56.1c4.2-4.2 1.5-11.3-4.4-11.8-47.5-3.5-96.1 12.6-132.5 48.9-54 54-63.3 135.1-29.4 199.2v0.1L199 805.9c-20.9 20.9-21.6 54.7-2 76.4 21.5 23.8 58.5 24 81.2 1.3l377.3-377.3h0.1c62.5 27.5 137.8 16.2 189-34.9z" fill="#33DEB4" opacity=".4" /><path d="M206.1 875c-18.9 0-37.9-7.2-52.3-21.6-13.9-13.9-21.6-32.5-21.6-52.3s7.7-38.4 21.6-52.3l366.4-366.4c-31.3-71.1-16.5-153.3 38.7-208.6 42.3-42.3 103.2-62 163-52.4 6.9 1.1 12.5 5.9 14.7 12.6 2.1 6.6 0.4 13.9-4.5 18.8l-64.5 64.5 26.4 86.1 88.2 28.3 64.4-64.4c4.9-4.9 12.2-6.7 18.8-4.5 6.6 2.1 11.5 7.8 12.6 14.7 9.5 59.7-10.1 120.7-52.4 163C773.3 492.8 697 509.3 628 484L258.4 853.3C244 867.8 225 875 206.1 875z m469.6-718.3c-34.1 3.5-65.8 18.4-90.7 43.2-46.9 46.9-57.4 118.3-26.1 177.6 3.8 7.2 2.5 16-3.3 21.7L179.9 774.9c-6.9 7-10.8 16.2-10.8 26.2 0 9.9 3.8 19.2 10.8 26.2 14.4 14.4 37.9 14.4 52.3 0l378.1-378.1c5.4-5.4 13.6-6.9 20.6-3.8 57.9 25.6 123.9 13.5 168.4-31 24.9-24.9 39.8-56.6 43.2-90.7l-42.2 42.2c-4.9 4.9-12.1 6.7-18.7 4.5l-108.2-34.7c-5.8-1.8-10.3-6.4-12-12.2l-32.5-106c-2-6.5-0.2-13.7 4.6-18.5l42.2-42.3z" fill="#33DEB4" /><path d="M288 433.2c-14.9 0-28.8-5.8-39.2-16.2L142.5 310.7c-21.6-21.6-21.6-56.8 0-78.5l42.7-42.7c20.9-20.9 57.6-20.9 78.5 0L370 295.8c10.5 10.5 16.2 24.4 16.2 39.2 0 14.9-5.8 28.8-16.2 39.2L327.3 417c-10.5 10.5-24.4 16.2-39.3 16.2z m-63.6-222.8c-4.7 0-9.5 1.8-13.1 5.4l-42.7 42.7c-7.2 7.2-7.2 18.9 0 26.2L274.9 391c7.2 7.2 18.9 7.2 26.2 0l42.7-42.7c7.2-7.2 7.2-18.9 0-26.2L237.5 215.8c-3.6-3.7-8.3-5.4-13.1-5.4z" fill="#808080" /><path d="M394.4 459.9c-4.7 0-9.5-1.8-13.1-5.4L329 402.2c-7.2-7.2-7.2-18.9 0-26.2 7.2-7.2 18.9-7.2 26.2 0l52.3 52.3c7.2 7.2 7.2 18.9 0 26.2-3.7 3.6-8.4 5.4-13.1 5.4zM741.6 872.6c-4.7 0-9.5-1.8-13.1-5.4L570 708.6c-3.5-3.5-5.4-8.2-5.4-13.1s2-9.6 5.4-13.1l65.4-65.4c3.5-3.5 8.2-5.4 13.1-5.4s9.6 2 13.1 5.4l158.6 158.6c7.2 7.2 7.2 18.9 0 26.2l-65.4 65.4c-3.7 3.6-8.5 5.4-13.2 5.4zM609.2 695.5l132.4 132.4 39.2-39.2-132.4-132.4-39.2 39.2z" fill="#808080" /><path d="M609.2 674.7c-4.7 0-9.5-1.8-13.1-5.4L543.8 617c-7.2-7.2-7.2-18.9 0-26.2 7.2-7.2 18.9-7.2 26.2 0l52.3 52.3c7.2 7.2 7.2 18.9 0 26.2-3.7 3.6-8.4 5.4-13.1 5.4z" fill="#808080" /></svg>