<?xml version="1.0" standalone="no"?><!DOCTYPE svg PUBLIC "-//W3C//DTD SVG 1.1//EN" "http://www.w3.org/Graphics/SVG/1.1/DTD/svg11.dtd"><svg class="icon" width="200px" height="200.00px" viewBox="0 0 1024 1024" version="1.1" xmlns="http://www.w3.org/2000/svg"><path d="M572.1 329.7H451.9V227.9l120.2-45.1z" fill="#FFFFFF" /><path d="M593 350.6H431V213.4l162-60.7v197.9z m-120.2-41.8h78.4V213l-78.4 29.4v66.4z" fill="#7A58A6" /><path d="M643.3 157.1s-8.6-39.9-51.3-39.9c-25.6 0-62.7 21.6-89.6 43.2-21.1 16.9-47.2 26.4-74.2 26.4h-94v61.8h94c33 0 81.5-16.4 107.8-36.3 19.4-14.8 38.3-26.3 57.3-26.3 24.9 0 37.8 11.2 44.2 20.6 1.8 2.6 5.9 1.1 5.9-2v-47.5h-0.1z" fill="#FFC6FB" /><path d="M428.2 269.4h-115V165.8h114.9c21.9 0 43.6-7.7 61.1-21.8 14-11.2 62.8-47.8 102.7-47.8 47.1 0 67.5 36.9 71.7 56.4l0.5 4.4v47.4c0 10.7-6.9 20-17.1 23.1-10.1 3.1-20.9-0.6-26.9-9.3-5.2-7.7-14.3-11.6-27-11.6-13.7 0-30.2 11.2-44.6 22.1-29.9 22.9-82.8 40.7-120.3 40.7zM355 227.6h73.1c28.2 0 72.6-15 95.1-32.1 20.9-15.9 43.9-30.6 69.9-30.6 11.4 0 21.1 1.9 29.2 4.9v-9.9c-2-6.2-9.1-21.8-30.4-21.8-16.7 0-48.2 15.9-76.6 38.6-24.9 20-55.9 30.9-87.2 30.9H355v20zM473.6 699.8l-18.2-37.6c65-31.4 51.5-191.8 40.8-250.9l41.1-7.4c4.5 24.9 41.2 245.2-63.7 295.9z" fill="#7A58A6" /><path d="M412.1 329.7h199.8v61.6H412.1z" fill="#FFFFFF" /><path d="M632.8 412.2H391.2V308.8h241.6v103.4zM433 370.4h158v-19.8H433v19.8z" fill="#7A58A6" /><path d="M380.7 391.3h262.5v94.5H380.7z" fill="#FDF3DC" /><path d="M664.2 506.7H359.8V370.4h304.3v136.3h0.1z m-262.6-41.8h220.7v-52.7H401.6v52.7z" fill="#7A58A6" /><path d="M745.3 811.1l-51.1-223.5c-37.9 27.3-83.8 67-140 67-85.7 0-116.2-73.1-187.6-73.1-12 0-24.3 1.8-36.5 4.7l-51.4 224.9c-0.4 1.6-0.7 3.3-1 4.9l29.8 77.5c10.4 7.3 22.9 11.6 36.6 11.6h335.8c44.8 0 76.4-45.9 65.4-94z" fill="#FFC6FB" /><path d="M745.3 811.1l-46.6-203.8c-42.1 23.3-95.7 83.2-164.8 83.2-85.7 0-116.2-73.1-187.6-73.1-7.8 0-15.8 0.8-23.8 2.1l-43.8 191.6c-11 48.1 20.6 94 65.4 94h335.8c44.8 0 76.4-45.9 65.4-94z" fill="#FE62D7" /><path d="M745.3 811.1l-74.4-325.3h-41.8l74.4 325.3c11 48.1-20.6 94-65.4 94h41.8c44.8 0 76.4-45.9 65.4-94z" fill="#FEEA97" /><path d="M320.5 811.1l74.4-325.3h-41.8l-74.4 325.3c-11 48.1 20.6 94 65.4 94h41.8c-44.8 0-76.4-45.9-65.4-94z" fill="#FFFFFF" /><path d="M652.5 760m-16.1 0a16.1 16.1 0 1 0 32.2 0 16.1 16.1 0 1 0-32.2 0Z" fill="#FFFFFF" /><path d="M589.5 811.9m-10.1 0a10.1 10.1 0 1 0 20.2 0 10.1 10.1 0 1 0-20.2 0Z" fill="#FFFFFF" /><path d="M622.8 837.7m-10.1 0a10.1 10.1 0 1 0 20.2 0 10.1 10.1 0 1 0-20.2 0Z" fill="#FFFFFF" /><path d="M679.9 926H344.1c-25.9 0-50.3-12-67-32.9-18.8-23.5-25.8-55.9-18.7-86.6l78.1-341.6h351.1l78.1 341.5c7 30.7 0 63.1-18.7 86.6-16.7 21-41.1 33-67.1 33zM369.8 506.7L299 815.8c-4.2 18.4-0.2 37.6 10.7 51.2 8.8 11.1 21 17.2 34.3 17.2h335.9c13.3 0 25.5-6.1 34.3-17.2 10.9-13.7 14.9-32.8 10.7-51.2l-70.7-309.1H369.8z" fill="#7A58A6" /></svg>