<?xml version="1.0" standalone="no"?><!DOCTYPE svg PUBLIC "-//W3C//DTD SVG 1.1//EN" "http://www.w3.org/Graphics/SVG/1.1/DTD/svg11.dtd"><svg class="icon" width="200px" height="200.00px" viewBox="0 0 1024 1024" version="1.1" xmlns="http://www.w3.org/2000/svg"><path d="M512 512m-512 0a512 512 0 1 0 1024 0 512 512 0 1 0-1024 0Z" fill="#FFFFFF" /><path d="M260.8 172.8h494.4c13.6 0 24 10.4 24 24v630.4c0 13.6-10.4 24-24 24H260.8c-13.6 0-24-10.4-24-24V196.8c0-13.6 10.4-24 24-24z" fill="#D6F1FF" /><path d="M755.2 864H260.8c-20 0-36.8-16.8-36.8-36.8V196.8c0-20 16.8-36.8 36.8-36.8h494.4c20 0 36.8 16.8 36.8 36.8v630.4c0 20-16.8 36.8-36.8 36.8zM260.8 185.6c-6.4 0-11.2 4.8-11.2 11.2v630.4c0 6.4 4.8 11.2 11.2 11.2h494.4c6.4 0 11.2-4.8 11.2-11.2V196.8c0-6.4-4.8-11.2-11.2-11.2H260.8z" fill="#333333" /><path d="M240 328h552v24H240z" fill="#333333" /><path d="M508 596m-136 0a136 136 0 1 0 272 0 136 136 0 1 0-272 0Z" fill="#0072FF" /><path d="M508 744C426.4 744 360 677.6 360 596S426.4 448 508 448 656 514.4 656 596 589.6 744 508 744z m0-272C440 472 384 528 384 596S440 720 508 720 632 664 632 596 576 472 508 472z" fill="#333333" /><path d="M509.6 725.6c-56 0-104.8-34.4-125.6-82.4 4-3.2 6.4-7.2 8.8-11.2 6.4-8.8 9.6-12 15.2-12s8.8 3.2 15.2 12c6.4 8.8 15.2 20.8 32.8 20.8s26.4-12 32.8-20.8c6.4-8.8 9.6-12 15.2-12s8.8 3.2 15.2 12c6.4 8.8 15.2 20.8 32.8 20.8 17.6 0 26.4-12 32.8-20.8 6.4-8.8 9.6-12 15.2-12 6.4 0 8.8 3.2 15.2 12 4 5.6 8.8 12 16 16.8-20.8 44.8-68 76.8-121.6 76.8z" fill="#D6F1FF" /><path d="M508 744C426.4 744 360 677.6 360 596S426.4 448 508 448 656 514.4 656 596 589.6 744 508 744z m0-272C440 472 384 528 384 596S440 720 508 720 632 664 632 596 576 472 508 472z" fill="#333333" /><path d="M304 240h144v48H304z" fill="#0072FF" /><path d="M624 264m-24 0a24 24 0 1 0 48 0 24 24 0 1 0-48 0Z" fill="#333333" /><path d="M696 264m-24 0a24 24 0 1 0 48 0 24 24 0 1 0-48 0Z" fill="#333333" /></svg>