<?xml version="1.0" standalone="no"?><!DOCTYPE svg PUBLIC "-//W3C//DTD SVG 1.1//EN" "http://www.w3.org/Graphics/SVG/1.1/DTD/svg11.dtd"><svg class="icon" width="200px" height="200.00px" viewBox="0 0 1024 1024" version="1.1" xmlns="http://www.w3.org/2000/svg"><path d="M210 209c-1.4 0-2.8-0.7-3.5-2.1l-15.8-28.4c-1.1-1.9-0.4-4.4 1.5-5.4 1.9-1.1 4.4-0.4 5.4 1.5l15.8 28.4c1.1 1.9 0.4 4.4-1.5 5.4-0.6 0.5-1.3 0.6-1.9 0.6z" fill="#00B7EE" /><path d="M187.9 202.7c-1.4 0-2.8-0.7-3.5-2.1-1.1-1.9-0.4-4.4 1.6-5.4l28.4-15.8c1.9-1.1 4.4-0.4 5.4 1.6 1.1 1.9 0.4 4.4-1.6 5.4l-28.4 15.8c-0.6 0.4-1.3 0.5-1.9 0.5z" fill="#00B7EE" /><path d="M888.2 148.5c-1.8 0-3.4-1.2-3.9-3l-6.3-23.4c-0.6-2.1 0.7-4.3 2.8-4.9s4.3 0.7 4.9 2.8l6.3 23.4c0.6 2.1-0.7 4.3-2.8 4.9-0.3 0.1-0.6 0.2-1 0.2z" fill="#9DEAE4" /><path d="M873.4 139.9c-1.8 0-3.4-1.2-3.9-3-0.6-2.1 0.7-4.3 2.8-4.9l23.4-6.3c2.1-0.6 4.3 0.7 4.9 2.8 0.6 2.1-0.7 4.3-2.8 4.9l-23.4 6.3c-0.3 0.2-0.7 0.2-1 0.2z" fill="#9DEAE4" /><path d="M125.9 144.8c-5 0-9-4-9-9s4-9 9-9 9 4 9 9-4 9-9 9z m0-13.8c-2.6 0-4.8 2.1-4.8 4.8s2.1 4.8 4.8 4.8 4.8-2.1 4.8-4.8-2.2-4.8-4.8-4.8z" fill="#EB6877" /><path d="M246.4 100m-4 0a4 4 0 1 0 8 0 4 4 0 1 0-8 0Z" fill="#FF455C" /><path d="M807.4 211c-6.1 0-11-4.9-11-11s4.9-11 11-11 11 4.9 11 11-4.9 11-11 11z m0-17.4c-3.5 0-6.4 2.8-6.4 6.4s2.8 6.4 6.4 6.4 6.4-2.8 6.4-6.4-2.9-6.4-6.4-6.4z" fill="#B3D465" /><path d="M182.4 61m-8 0a8 8 0 1 0 16 0 8 8 0 1 0-16 0Z" fill="#CC9EE1" /><path d="M54.9 76.5m-3.5 0a3.5 3.5 0 1 0 7 0 3.5 3.5 0 1 0-7 0Z" fill="#D3A884" /><path d="M871.9 35.5m-3.5 0a3.5 3.5 0 1 0 7 0 3.5 3.5 0 1 0-7 0Z" fill="#D3A884" /><path d="M786.7 84.9m-8 0a8 8 0 1 0 16 0 8 8 0 1 0-16 0Z" fill="#EBB4BE" /><path d="M951.6 210.4m-6 0a6 6 0 1 0 12 0 6 6 0 1 0-12 0Z" fill="#A657FF" /><path d="M965.9 99.5m-7.5 0a7.5 7.5 0 1 0 15 0 7.5 7.5 0 1 0-15 0Z" fill="#FFD200" /><path d="M54.9 220.5m-7.5 0a7.5 7.5 0 1 0 15 0 7.5 7.5 0 1 0-15 0Z" fill="#FFD375" /><path d="M339.4 114h385c16.6 0 30 13.4 30 30v119c0 16.6-13.4 30-30 30h-385c-16.6 0-30-13.4-30-30V144c0-16.6 13.4-30 30-30z" fill="#EB6877" /><path d="M714.4 303h-405c-22.1 0-40-17.9-40-40V134c0-22.1 17.9-40 40-40h405c22.1 0 40 17.9 40 40v129c0 22.1-17.9 40-40 40z m-405-189c-11 0-20 9-20 20v129c0 11 9 20 20 20h405c11 0 20-9 20-20V134c0-11-9-20-20-20h-405z" fill="#222222" /><path d="M138.4 255h791c16.6 0 30 13.4 30 30v587c0 16.6-13.4 30-30 30h-791c-16.6 0-30-13.4-30-30V285c0-16.6 13.4-30 30-30z" fill="#22B4FF" /><path d="M959.4 473V285c0-16.6-13.4-30-30-30h-791c-16.6 0-30 13.4-30 30v188h851z" fill="#FFDF00" /><path d="M919.4 922h-26c-5.5 0-10-4.5-10-10s4.5-10 10-10h26c11 0 20-9 20-20V285c0-11-9-20-20-20h-811c-11 0-20 9-20 20v226c0 5.5-4.5 10-10 10s-10-4.5-10-10V285c0-22.1 17.9-40 40-40h811c22.1 0 40 17.9 40 40v597c0 22.1-17.9 40-40 40z m-154 0h-657c-22.1 0-40-17.9-40-40V638.5c0-5.5 4.5-10 10-10s10 4.5 10 10V882c0 11 9 20 20 20h657c5.5 0 10 4.5 10 10s-4.5 10-10 10z" fill="#222222" /><path d="M79.4 576m-16 0a16 16 0 1 0 32 0 16 16 0 1 0-32 0Z" fill="#222222" /><path d="M831.4 911m-16 0a16 16 0 1 0 32 0 16 16 0 1 0-32 0Z" fill="#222222" /><path d="M941.4 493h-859c-5.5 0-10-4.5-10-10s4.5-10 10-10h859c5.5 0 10 4.5 10 10s-4.5 10-10 10z" fill="#222222" /><path d="M679.4 481c0 92.2-75 167-167.5 167s-167.5-74.8-167.5-167h335z" fill="#FFFFFF" /><path d="M683.4 487c0 85-69.4 154-155 154s-155-69-155-154h310z" fill="#87FFFE" /><path d="M511.4 661.1c-97.1 0-176.1-79.1-176.1-176.3 0-5.5 4.5-10 10-10h332.3c5.5 0 10 4.5 10 10-0.1 97.3-79.1 176.3-176.2 176.3zM355.6 494.9c5.2 81.5 73.1 146.3 155.8 146.3s150.7-64.7 155.8-146.3H355.6z" fill="#222222" /></svg>