<?xml version="1.0" standalone="no"?><!DOCTYPE svg PUBLIC "-//W3C//DTD SVG 1.1//EN" "http://www.w3.org/Graphics/SVG/1.1/DTD/svg11.dtd"><svg class="icon" width="200px" height="200.00px" viewBox="0 0 1024 1024" version="1.1" xmlns="http://www.w3.org/2000/svg"><path fill="#1296db" d="M535.9 672.3H405.4c-16.6 0-30.1 13.5-30.1 30.1s13.5 30.1 30.1 30.1h130.5c16.6 0 30.1-13.5 30.1-30.1s-13.5-30.1-30.1-30.1z"  /><path fill="#1296db" d="M627.8 507.6c50.6-39.3 80.8-103.6 71.7-174.2-11-85.3-80.3-153.4-165.8-162.9-114-12.7-210.8 76.5-210.8 187.8 0 60.7 28.7 114.7 73.3 149.3C267 555 174.5 679.2 174.5 824.6c0 16.6 13.5 30.1 30.1 30.1h614.7c16.6 0 30.1-13.5 30.1-30.1 0.1-145.4-92.4-269.6-221.6-317zM383.2 358.3c0-71 57.8-128.8 128.8-128.8s128.8 57.8 128.8 128.8S583 487.2 512 487.2s-128.8-57.8-128.8-128.9zM236.4 794.5c15-138.8 132.9-247.2 275.6-247.2 142.7 0 260.6 108.4 275.6 247.2H236.4z"  /><path fill="#1296db" d="M629.6 702.4m-30.1 0a30.1 30.1 0 1 0 60.2 0 30.1 30.1 0 1 0-60.2 0Z"  /></svg>