<?xml version="1.0" standalone="no"?><!DOCTYPE svg PUBLIC "-//W3C//DTD SVG 1.1//EN" "http://www.w3.org/Graphics/SVG/1.1/DTD/svg11.dtd"><svg class="icon" width="200px" height="200.00px" viewBox="0 0 1024 1024" version="1.1" xmlns="http://www.w3.org/2000/svg"><path d="M0 0h1024v1024H0z" fill="#27BF84" /><path d="M512 715.4176l-182.784 91.0336a21.3248 21.3248 0 0 1-30.6176-22.2464l30.08-201.984-143.0528-145.7152a21.3248 21.3248 0 0 1 11.6736-35.9936l201.3952-33.792 94.3872-181.0944a21.3248 21.3248 0 0 1 37.8368 0l94.3872 181.0944 201.3952 33.792a21.3248 21.3248 0 0 1 11.6736 35.9936l-143.0528 145.7152 30.08 201.984a21.3248 21.3248 0 0 1-30.592 22.272L512 715.392z" fill="#FFFFFF" /></svg>